<?xml version="1.0" standalone="no"?>
<svg width="32" height="32" version="1.1" xmlns="http://www.w3.org/2000/svg">
<desc>This is the Chisel logo. See https://github.com/craigahobbs/chisel#readme for more information.</desc>
<rect x="6" y="1" width="5" height="5" style="fill: #2a803b; stroke: none;"></rect>
<rect x="11" y="1" width="5" height="5" style="fill: #2a803b; stroke: none;"></rect>
<rect x="16" y="1" width="5" height="5" style="fill: #2a803b; stroke: none;"></rect>
<rect x="1" y="6" width="5" height="5" style="fill: #2a803b; stroke: none;"></rect>
<rect x="11" y="6" width="5" height="5" style="fill: #2a803b; stroke: none;"></rect>
<rect x="21" y="6" width="5" height="5" style="fill: #2a803b; stroke: none;"></rect>
<rect x="1" y="11" width="5" height="5" style="fill: #2a803b; stroke: none;"></rect>
<rect x="6" y="11" width="5" height="5" style="fill: #2a803b; stroke: none;"></rect>
<rect x="16" y="11" width="5" height="5" style="fill: #2a803b; stroke: none;"></rect>
<rect x="21" y="11" width="5" height="5" style="fill: #2a803b; stroke: none;"></rect>
<rect x="26" y="11" width="5" height="5" style="fill: #2a803b; stroke: none;"></rect>
<rect x="1" y="16" width="5" height="5" style="fill: #2a803b; stroke: none;"></rect>
<rect x="11" y="16" width="5" height="5" style="fill: #2a803b; stroke: none;"></rect>
<rect x="26" y="16" width="5" height="5" style="fill: #2a803b; stroke: none;"></rect>
<rect x="6" y="21" width="5" height="5" style="fill: #2a803b; stroke: none;"></rect>
<rect x="11" y="21" width="5" height="5" style="fill: #2a803b; stroke: none;"></rect>
<rect x="11" y="26" width="5" height="5" style="fill: #2a803b; stroke: none;"></rect>
<rect x="16" y="26" width="5" height="5" style="fill: #2a803b; stroke: none;"></rect>
</svg>
